<svg width="134" height="134" viewBox="0 0 134 134" fill="none" xmlns="http://www.w3.org/2000/svg">
<path fill-rule="evenodd" clip-rule="evenodd" d="M66.5164 129.026C101.039 129.026 129.026 101.039 129.026 66.5164C129.026 31.9934 101.039 4.00701 66.5164 4.00701C31.9934 4.00701 4.00701 31.9934 4.00701 66.5164C4.00701 101.039 31.9934 129.026 66.5164 129.026ZM66.5164 133.033C103.252 133.033 133.033 103.252 133.033 66.5164C133.033 29.7804 103.252 0 66.5164 0C29.7804 0 0 29.7804 0 66.5164C0 103.252 29.7804 133.033 66.5164 133.033ZM66.3018 123.876C97.8622 123.876 123.447 98.2916 123.447 66.7312C123.447 35.1709 97.8622 9.58611 66.3018 9.58611C34.7414 9.58611 9.15667 35.1709 9.15667 66.7312C9.15667 98.2916 34.7414 123.876 66.3018 123.876ZM66.3018 127.883C100.075 127.883 127.454 100.505 127.454 66.7312C127.454 32.9578 100.075 5.5791 66.3018 5.5791C32.5284 5.5791 5.14966 32.9578 5.14966 66.7312C5.14966 100.505 32.5284 127.883 66.3018 127.883ZM25.8344 80H31.6128L33.5047 74.1842H42.7134L44.6017 80H50.3801L41.588 54.4954H34.639L25.8344 80ZM41.3467 69.975L38.2131 60.3236H38.0138L34.8741 69.975H41.3467ZM53.4499 80H62.4911C65.0814 80 67.3064 79.4894 69.1661 78.4682C71.0341 77.447 72.4662 75.9817 73.4625 74.0722C74.4671 72.1626 74.9694 69.8795 74.9694 67.2228C74.9694 64.5743 74.4671 62.2995 73.4625 60.3983C72.4662 58.4971 71.0424 57.04 69.191 56.0271C67.3396 55.006 65.1312 54.4954 62.5658 54.4954H53.4499V80ZM62.2669 75.3798H58.8422V59.1156H62.2793C63.8734 59.1156 65.2142 59.3979 66.3018 59.9624C67.3894 60.527 68.2072 61.407 68.7551 62.6026C69.3114 63.7981 69.5895 65.3382 69.5895 67.2228C69.5895 69.124 69.3114 70.6765 68.7551 71.8804C68.2072 73.0759 67.3852 73.9601 66.2893 74.5329C65.2018 75.0975 63.8609 75.3798 62.2669 75.3798ZM85.614 54.4954H78.9638V80H84.1943V63.3373H84.406L91.0063 79.8755H94.568L101.168 63.3996H101.38V80H106.61V54.4954H99.9603L92.9366 71.6313H92.6377L85.614 54.4954Z" fill="black" fill-opacity="0.5"/>
</svg>
