<svg width="134" height="134" viewBox="0 0 134 134" fill="none" xmlns="http://www.w3.org/2000/svg">
<path fill-rule="evenodd" clip-rule="evenodd" d="M66.5164 129.026C101.039 129.026 129.026 101.039 129.026 66.5164C129.026 31.9934 101.039 4.00701 66.5164 4.00701C31.9934 4.00701 4.00701 31.9934 4.00701 66.5164C4.00701 101.039 31.9934 129.026 66.5164 129.026ZM66.5164 133.033C103.252 133.033 133.033 103.252 133.033 66.5164C133.033 29.7804 103.252 0 66.5164 0C29.7804 0 0 29.7804 0 66.5164C0 103.252 29.7804 133.033 66.5164 133.033ZM66.3018 123.876C97.8622 123.876 123.447 98.2916 123.447 66.7312C123.447 35.1709 97.8622 9.58611 66.3018 9.58611C34.7414 9.58611 9.15667 35.1709 9.15667 66.7312C9.15667 98.2916 34.7414 123.876 66.3018 123.876ZM66.3018 127.883C100.075 127.883 127.454 100.505 127.454 66.7312C127.454 32.9578 100.075 5.5791 66.3018 5.5791C32.5284 5.5791 5.14966 32.9578 5.14966 66.7312C5.14966 100.505 32.5284 127.883 66.3018 127.883ZM59.3937 61.1331C59.7092 61.598 59.9541 62.1335 60.1285 62.7395H65.608C65.4336 61.4776 65.0393 60.3236 64.4249 59.2775C63.8105 58.2231 63.0177 57.314 62.0463 56.5502C61.0832 55.7864 59.979 55.1969 58.7337 54.7818C57.4883 54.3584 56.1434 54.1467 54.6988 54.1467C53.0134 54.1467 51.4484 54.4414 50.0038 55.0309C48.5592 55.6203 47.2931 56.4796 46.2055 57.6087C45.1179 58.7378 44.2711 60.116 43.665 61.7433C43.0673 63.3622 42.7684 65.2053 42.7684 67.2726C42.7684 69.9625 43.2707 72.2872 44.2753 74.2465C45.2881 76.1976 46.6995 77.7044 48.5094 78.7671C50.3193 79.8215 52.4198 80.3487 54.8109 80.3487C56.9528 80.3487 58.8541 79.917 60.5145 79.0535C62.175 78.1818 63.4784 76.9448 64.4249 75.3424C65.3714 73.7318 65.8446 71.8056 65.8446 69.564V66.351H55.172V70.4109H60.6498C60.6277 71.4303 60.3958 72.3187 59.9541 73.0759C59.4975 73.8729 58.8333 74.4914 57.9616 74.9315C57.0981 75.3632 56.0562 75.579 54.8358 75.579C53.4908 75.579 52.3243 75.2552 51.3363 74.6077C50.3484 73.9518 49.5846 73.0012 49.0449 71.7558C48.5053 70.5105 48.2354 68.9995 48.2354 67.2228C48.2354 65.4461 48.5094 63.9434 49.0574 62.7146C49.6053 61.4776 50.3691 60.5353 51.3488 59.8877C52.3368 59.2401 53.4825 58.9163 54.7859 58.9163C55.4833 58.9163 56.1185 59.0035 56.6913 59.1779C57.2725 59.3522 57.7872 59.6054 58.2355 59.9375C58.6922 60.2613 59.0782 60.6598 59.3937 61.1331ZM79.8796 73.8729L73.7152 54.4954H67.7251L76.5296 80H83.4787L92.2708 54.4954H86.2931L80.1162 73.8729H79.8796Z" fill="black" fill-opacity="0.5"/>
</svg>
