<svg width="134" height="134" viewBox="0 0 134 134" fill="none" xmlns="http://www.w3.org/2000/svg">
<path fill-rule="evenodd" clip-rule="evenodd" d="M66.5164 129.026C101.039 129.026 129.026 101.039 129.026 66.5164C129.026 31.9934 101.039 4.00701 66.5164 4.00701C31.9934 4.00701 4.00701 31.9934 4.00701 66.5164C4.00701 101.039 31.9934 129.026 66.5164 129.026ZM66.5164 133.033C103.252 133.033 133.033 103.252 133.033 66.5164C133.033 29.7804 103.252 0 66.5164 0C29.7804 0 0 29.7804 0 66.5164C0 103.252 29.7804 133.033 66.5164 133.033ZM66.3018 123.876C97.8622 123.876 123.447 98.2916 123.447 66.7312C123.447 35.1709 97.8622 9.58611 66.3018 9.58611C34.7414 9.58611 9.15667 35.1709 9.15667 66.7312C9.15667 98.2916 34.7414 123.876 66.3018 123.876ZM66.3018 127.883C100.075 127.883 127.454 100.505 127.454 66.7312C127.454 32.9578 100.075 5.5791 66.3018 5.5791C32.5284 5.5791 5.14966 32.9578 5.14966 66.7312C5.14966 100.505 32.5284 127.883 66.3018 127.883ZM60.3937 61.1331C60.7092 61.598 60.9541 62.1335 61.1285 62.7395H66.608C66.4336 61.4776 66.0393 60.3236 65.4249 59.2775C64.8105 58.2231 64.0177 57.314 63.0463 56.5502C62.0832 55.7864 60.979 55.1969 59.7337 54.7818C58.4883 54.3584 57.1434 54.1467 55.6988 54.1467C54.0134 54.1467 52.4484 54.4414 51.0038 55.0309C49.5592 55.6203 48.2931 56.4796 47.2055 57.6087C46.1179 58.7378 45.2711 60.116 44.665 61.7433C44.0673 63.3622 43.7684 65.2053 43.7684 67.2726C43.7684 69.9625 44.2707 72.2872 45.2753 74.2465C46.2881 76.1976 47.6995 77.7044 49.5094 78.7671C51.3193 79.8215 53.4198 80.3487 55.8109 80.3487C57.9528 80.3487 59.8541 79.917 61.5145 79.0535C63.175 78.1818 64.4784 76.9448 65.4249 75.3424C66.3714 73.7318 66.8446 71.8056 66.8446 69.564V66.351H56.172V70.4109H61.6498C61.6277 71.4303 61.3958 72.3187 60.9541 73.0759C60.4975 73.8729 59.8333 74.4914 58.9616 74.9315C58.0981 75.3632 57.0562 75.579 55.8358 75.579C54.4908 75.579 53.3243 75.2552 52.3363 74.6077C51.3484 73.9518 50.5846 73.0012 50.0449 71.7558C49.5053 70.5105 49.2354 68.9995 49.2354 67.2228C49.2354 65.4461 49.5094 63.9434 50.0574 62.7146C50.6053 61.4776 51.3691 60.5353 52.3488 59.8877C53.3368 59.2401 54.4825 58.9163 55.7859 58.9163C56.4833 58.9163 57.1185 59.0035 57.6913 59.1779C58.2725 59.3522 58.7872 59.6054 59.2355 59.9375C59.6922 60.2613 60.0782 60.6598 60.3937 61.1331ZM70.8951 54.4954V80H76.2874V71.7309H80.8205C82.7798 71.7309 84.4486 71.3698 85.8267 70.6475C87.2132 69.9252 88.2718 68.9164 89.0024 67.6213C89.733 66.3261 90.0983 64.8317 90.0983 63.1381C90.0983 61.4444 89.7371 59.95 89.0148 58.6548C88.3008 57.3514 87.263 56.3343 85.9015 55.6037C84.5399 54.8648 82.8919 54.4954 80.9574 54.4954H70.8951ZM76.2874 67.4096H79.9487C80.9865 67.4096 81.8416 67.2311 82.5141 66.8741C83.1949 66.5088 83.7013 66.0065 84.0334 65.3672C84.3738 64.7196 84.544 63.9766 84.544 63.1381C84.544 62.2912 84.3738 61.5523 84.0334 60.9213C83.7013 60.2821 83.1949 59.7881 82.5141 59.4394C81.8333 59.0824 80.9699 58.9039 79.9238 58.9039H76.2874V67.4096Z" fill="black" fill-opacity="0.5"/>
</svg>
