<svg width="134" height="134" viewBox="0 0 134 134" fill="none" xmlns="http://www.w3.org/2000/svg">
<path fill-rule="evenodd" clip-rule="evenodd" d="M67 129.026C101.523 129.026 129.509 101.039 129.509 66.5164C129.509 31.9934 101.523 4.00701 67 4.00701C32.477 4.00701 4.49065 31.9934 4.49065 66.5164C4.49065 101.039 32.477 129.026 67 129.026ZM67 133.033C103.736 133.033 133.516 103.252 133.516 66.5164C133.516 29.7804 103.736 0 67 0C30.264 0 0.483643 29.7804 0.483643 66.5164C0.483643 103.252 30.264 133.033 67 133.033ZM66.7854 123.876C98.3458 123.876 123.931 98.2916 123.931 66.7312C123.931 35.1709 98.3458 9.58611 66.7854 9.58611C35.2251 9.58611 9.64031 35.1709 9.64031 66.7312C9.64031 98.2916 35.2251 123.876 66.7854 123.876ZM66.7854 127.883C100.559 127.883 127.938 100.505 127.938 66.7312C127.938 32.9578 100.559 5.5791 66.7854 5.5791C33.012 5.5791 5.6333 32.9578 5.6333 66.7312C5.6333 100.505 33.012 127.883 66.7854 127.883ZM106.238 105.136L106.192 105.184C106.17 105.206 106.149 105.228 106.127 105.249C106.09 105.287 106.052 105.324 106.014 105.361C105.922 105.449 105.828 105.536 105.733 105.62C105.483 105.841 105.222 106.046 104.954 106.233C104.841 106.312 104.726 106.388 104.611 106.461L104.557 106.494C104.512 106.522 104.467 106.549 104.421 106.576C104.303 106.647 104.184 106.714 104.063 106.778C103.769 106.934 103.468 107.072 103.162 107.191C103.043 107.238 102.923 107.282 102.802 107.323C102.773 107.333 102.744 107.342 102.715 107.352C102.665 107.368 102.614 107.384 102.564 107.4L102.501 107.419C102.4 107.45 102.298 107.478 102.196 107.504C101.97 107.563 101.742 107.613 101.513 107.653C101.187 107.711 100.858 107.749 100.528 107.769C100.181 107.79 99.8322 107.79 99.4849 107.769C99.155 107.749 98.826 107.711 98.4997 107.653C98.2705 107.613 98.0426 107.563 97.8166 107.504C97.7147 107.478 97.6131 107.45 97.512 107.419L97.4491 107.4C96.9349 107.242 96.4326 107.034 95.9494 106.778C95.8289 106.714 95.7095 106.647 95.5915 106.576C95.1321 106.304 94.6926 105.985 94.2795 105.62L94.2301 105.576C94.152 105.506 94.075 105.434 93.9989 105.361C93.9609 105.324 93.9232 105.287 93.8857 105.249L93.1266 104.49L92.8044 104.168L91.7099 103.074L91.3876 102.751L90.2932 101.657C91.858 100.092 94.3952 100.092 95.96 101.657L96.7191 102.416L96.7372 102.434L96.7585 102.455L96.7809 102.477C96.8016 102.497 96.822 102.517 96.8421 102.537C96.8638 102.556 96.8852 102.574 96.9066 102.594C97.4306 103.064 98.0304 103.391 98.6631 103.581L98.7017 103.593L98.7441 103.606C98.7716 103.613 98.799 103.62 98.8265 103.627C99.5984 103.828 100.414 103.828 101.186 103.627C101.214 103.62 101.241 103.613 101.269 103.606C101.285 103.601 101.302 103.596 101.318 103.591L101.35 103.581C101.404 103.565 101.458 103.548 101.511 103.529C101.859 103.411 102.213 103.343 102.563 103.322C102.743 103.018 102.966 102.733 103.232 102.477C103.253 102.457 103.273 102.436 103.294 102.416L103.325 102.385L103.354 102.354C103.374 102.333 103.395 102.313 103.415 102.293C103.433 102.271 103.452 102.25 103.471 102.228C103.942 101.704 104.269 101.105 104.459 100.472L104.472 100.429L104.484 100.391L104.494 100.35L104.505 100.309C104.706 99.5366 104.706 98.7206 104.505 97.9487C104.497 97.9212 104.491 97.8938 104.484 97.8663C104.475 97.8395 104.467 97.8125 104.459 97.7853C104.443 97.7313 104.425 97.6775 104.407 97.624C104.289 97.2757 104.221 96.9223 104.2 96.5719C103.896 96.3923 103.611 96.1693 103.354 95.9031C103.335 95.8824 103.314 95.8618 103.294 95.8413L102.535 95.0822C102.272 94.8193 102.053 94.5289 101.878 94.2203C101.57 94.0457 101.279 93.827 101.017 93.564L82.7987 75.3462C82.5358 75.0833 82.3171 74.7929 82.1425 74.4843C81.8339 74.3098 81.5435 74.091 81.2806 73.8281L60.0265 52.574C59.7635 52.3111 59.5448 52.0207 59.3702 51.7121C59.0616 51.5375 58.7713 51.3188 58.5083 51.0558L56.9902 49.5377C55.4253 47.9728 55.4253 45.4357 56.9902 43.8709L58.4069 45.2876L59.8236 46.7043L60.0265 46.9072L61.3417 48.2224L61.4432 48.3239L62.7584 49.6391L62.8599 49.7406L64.1751 51.0558L82.7987 69.6795L84.114 70.9947L84.2154 71.0962L85.5307 72.4114L85.6321 72.5128L86.9473 73.8281L102.535 89.4154L103.85 90.7306L103.951 90.8321L105.267 92.1473L105.368 92.2488L106.062 92.9432L106.127 93.0079C106.165 93.0454 106.202 93.0831 106.238 93.1211C106.327 93.2132 106.414 93.3067 106.498 93.4017C106.552 93.4635 106.606 93.5259 106.658 93.5888C106.908 93.8885 107.135 94.2012 107.339 94.5243C107.358 94.555 107.377 94.5858 107.396 94.6167C107.416 94.6489 107.435 94.6812 107.454 94.7137C107.524 94.8317 107.591 94.951 107.655 95.0716C107.872 95.4799 108.054 95.9018 108.201 96.3331C108.228 96.4122 108.253 96.4916 108.278 96.5713L108.297 96.6342C108.327 96.7353 108.356 96.8369 108.382 96.9388C108.441 97.1648 108.491 97.3927 108.531 97.6219C108.588 97.9482 108.627 98.2772 108.647 98.6071C108.668 98.9544 108.668 99.3027 108.647 99.6501C108.627 99.98 108.588 100.309 108.531 100.635C108.491 100.865 108.441 101.092 108.382 101.318C108.356 101.42 108.327 101.522 108.297 101.623L108.278 101.686C108.266 101.725 108.253 101.764 108.241 101.803L108.23 101.837C108.078 102.299 107.887 102.75 107.655 103.186C107.591 103.306 107.524 103.425 107.454 103.544C107.427 103.589 107.4 103.634 107.372 103.679C107.118 104.09 106.826 104.483 106.498 104.855L106.453 104.905C106.383 104.983 106.312 105.06 106.238 105.136ZM76.224 81.9209L77.7422 83.4391C79.307 85.0039 79.307 87.541 77.7422 89.1058L76.3255 87.6891L74.9088 86.2724L74.7059 86.0695L73.3906 84.7543L73.2892 84.6528L71.974 83.3376L71.8725 83.2361L70.5573 81.9209L51.9336 63.2973L50.6184 61.982L50.5169 61.8806L49.2017 60.5654L49.1003 60.4639L47.785 59.1487L32.1977 43.5613L30.8825 42.2461L30.781 42.1446L29.4658 40.8294L29.3643 40.7279L28.6699 40.0336L28.6052 39.9689C28.5677 39.9314 28.5307 39.8936 28.494 39.8557C28.4052 39.7636 28.3188 39.67 28.2349 39.575C28.1802 39.5132 28.1266 39.4509 28.0741 39.3879C27.8239 39.0882 27.5972 38.7756 27.3938 38.4524C27.3544 38.3897 27.3158 38.3266 27.2781 38.2631C27.208 38.145 27.1409 38.0257 27.077 37.9051C26.8602 37.4969 26.6785 37.0749 26.5317 36.6437C26.5048 36.5646 26.4791 36.4852 26.4545 36.4055L26.4354 36.3425C26.405 36.2414 26.3766 36.1399 26.3501 36.0379C26.2912 35.812 26.2416 35.5841 26.2013 35.3548C26.1439 35.0285 26.1053 34.6995 26.0856 34.3696C26.0647 34.0223 26.0647 33.674 26.0856 33.3267C26.1053 32.9968 26.1439 32.6678 26.2013 32.3414C26.2416 32.1122 26.2912 31.8843 26.3501 31.6583C26.3766 31.5564 26.405 31.4549 26.4354 31.3538L26.4545 31.2908C26.4701 31.2403 26.4861 31.1899 26.5027 31.1395C26.6543 30.6781 26.8457 30.2268 27.077 29.7911C27.1409 29.6706 27.208 29.5512 27.2781 29.4332C27.3051 29.3878 27.3325 29.3425 27.3604 29.2975C27.6144 28.8871 27.9059 28.4934 28.2349 28.1213L28.2789 28.0718C28.3489 27.9938 28.4206 27.9167 28.494 27.8406L28.5408 27.7925C28.5621 27.7707 28.5836 27.749 28.6052 27.7274C28.6427 27.6899 28.6805 27.6529 28.7184 27.6162C28.8105 27.5274 28.9041 27.441 28.9991 27.357C29.2497 27.1355 29.5102 26.9309 29.7789 26.7433C29.8917 26.6646 30.006 26.5888 30.1217 26.516L30.1753 26.4826C30.2203 26.4547 30.2656 26.4272 30.311 26.4003C30.4291 26.3302 30.5484 26.2631 30.669 26.1991C30.963 26.0431 31.2641 25.9052 31.5706 25.7854C31.6898 25.7388 31.8097 25.695 31.9304 25.6539L31.9691 25.6409L32.0174 25.6249C32.0677 25.6083 32.1181 25.5923 32.1686 25.5767L32.2316 25.5576C32.3327 25.5272 32.4342 25.4988 32.5362 25.4723C32.7621 25.4134 32.99 25.3638 33.2193 25.3235C33.5456 25.2661 33.8746 25.2275 34.2045 25.2078C34.5518 25.1869 34.9001 25.1869 35.2474 25.2078C35.5773 25.2275 35.9063 25.2661 36.2327 25.3235C36.4619 25.3638 36.6898 25.4134 36.9158 25.4723C37.0177 25.4988 37.1192 25.5272 37.2203 25.5576L37.2833 25.5767C37.7975 25.7352 38.2998 25.9427 38.783 26.1991C38.9035 26.2631 39.0229 26.3302 39.1409 26.4003C39.6003 26.673 40.0398 26.9919 40.4528 27.357L40.5023 27.4011C40.5803 27.4711 40.6574 27.5428 40.7335 27.6162C40.7715 27.6529 40.8092 27.6899 40.8467 27.7274L41.6058 28.4865L41.928 28.8087L43.0224 29.9032L43.3447 30.2255L44.4391 31.3199C42.8743 32.8847 40.3372 32.8847 38.7724 31.3199L38.0133 30.5608C37.9928 30.5403 37.9722 30.5201 37.9515 30.5001C37.9308 30.4801 37.9104 30.46 37.8902 30.4397C37.8686 30.4211 37.8471 30.4023 37.8258 30.3831C37.3018 29.9128 36.702 29.5854 36.0692 29.3957L36.0301 29.3837L35.9882 29.3705L35.9437 29.3596L35.9059 29.3499C35.1339 29.1489 34.318 29.1489 33.546 29.3499C33.5186 29.3571 33.4911 29.3639 33.4637 29.3705C33.4368 29.3791 33.4098 29.3875 33.3827 29.3957C33.3286 29.4119 33.2749 29.4291 33.2214 29.4473C32.873 29.5658 32.5197 29.6337 32.1693 29.6548C31.9897 29.9585 31.7667 30.2432 31.5004 30.5001C31.4797 30.5201 31.4591 30.5403 31.4386 30.5608L31.4069 30.5928L31.3779 30.6226C31.3579 30.6433 31.3378 30.6637 31.3176 30.6839C31.2989 30.7055 31.2801 30.727 31.2609 30.7483C30.7906 31.2723 30.4632 31.8721 30.2735 32.5049C30.2653 32.532 30.2569 32.559 30.2483 32.5859C30.2417 32.6133 30.2349 32.6408 30.2277 32.6682C30.0267 33.4402 30.0267 34.2561 30.2277 35.0281C30.2349 35.0555 30.2417 35.083 30.2483 35.1104C30.2569 35.1373 30.2653 35.1643 30.2735 35.1914C30.2897 35.2455 30.3069 35.2992 30.3251 35.3527C30.4436 35.7011 30.5115 36.0544 30.5326 36.4048C30.8363 36.5844 31.121 36.8074 31.3779 37.0737C31.3979 37.0944 31.4181 37.115 31.4386 37.1355L32.1977 37.8946C32.4606 38.1575 32.6794 38.4479 32.8539 38.7565C33.1625 38.931 33.4529 39.1498 33.7158 39.4127L51.9336 57.6305C52.1966 57.8934 52.4153 58.1838 52.5899 58.4924C52.8985 58.667 53.1889 58.8857 53.4518 59.1487L74.7059 80.4028C74.9688 80.6657 75.1876 80.9561 75.3621 81.2647C75.6707 81.4392 75.9611 81.658 76.224 81.9209ZM36.0176 84.18C36.0208 85.6003 36.4177 87.5278 37.3771 89.9818C38.5317 92.9353 38.5909 95.6667 37.7358 97.9184C36.8812 100.169 35.1645 101.786 33.0973 102.529C28.8151 104.066 23.7903 101.747 21.6647 95.7655L25.4404 94.4237C26.9747 98.7413 29.9506 99.4009 31.7433 98.7573C32.7137 98.4089 33.553 97.646 33.9898 96.4959C34.4261 95.347 34.5119 93.6579 33.6451 91.4408C32.5831 88.7242 32.0152 86.2821 32.0106 84.1888C32.006 82.0859 32.5779 80.1557 33.9956 78.7849C35.4137 77.4137 37.351 76.9183 39.4103 76.9961C41.4599 77.0736 43.8058 77.7168 46.3571 78.8322C48.4275 79.7375 49.9436 79.6445 50.9481 79.2337C51.9646 78.818 52.7085 77.9778 53.0733 76.9054C53.7904 74.7971 53.0027 71.7787 49.4139 70.3598L50.8871 66.6335C56.448 68.832 58.2776 74.0483 56.8668 78.1958C56.1677 80.2513 54.6615 82.0443 52.4649 82.9426C50.2564 83.8457 47.5966 83.7475 44.7518 82.5036C42.4652 81.5038 40.6314 81.0521 39.259 81.0003C37.8964 80.9488 37.1696 81.2897 36.781 81.6655C36.3919 82.0417 36.0145 82.7692 36.0176 84.18ZM45.8736 98.4784C44.9142 96.0244 44.5173 94.0969 44.5142 92.6766C44.5111 91.2658 44.8885 90.5382 45.2775 90.1621C45.6661 89.7863 46.393 89.4454 47.7555 89.4969C49.1279 89.5487 50.9617 90.0004 53.2483 91.0002C56.0932 92.244 58.7529 92.3423 60.9614 91.4392C63.158 90.5409 64.6642 88.7479 65.3634 86.6923C66.7741 82.5448 64.9445 77.3286 59.3836 75.1301L57.9104 78.8564C61.4992 80.2752 62.2869 83.2937 61.5698 85.402C61.205 86.4744 60.4611 87.3146 59.4447 87.7303C58.4402 88.1411 56.924 88.2341 54.8536 87.3288C52.3024 86.2133 49.9564 85.5702 47.9068 85.4927C45.8475 85.4149 43.9102 85.9103 42.4921 87.2815C41.0744 88.6523 40.5025 90.5825 40.5072 92.6854C40.5118 94.7787 41.0796 97.2207 42.1416 99.9374C43.0084 102.154 42.9226 103.844 42.4863 104.992C42.0496 106.143 41.2102 106.905 40.2399 107.254C38.4471 107.897 35.4713 107.238 33.9369 102.92L30.1612 104.262C32.2868 110.243 37.3116 112.563 41.5938 111.025C43.661 110.283 45.3777 108.665 46.2323 106.415C47.0874 104.163 47.0282 101.432 45.8736 98.4784ZM81.2311 38.9666C81.2343 40.3869 81.6312 42.3144 82.5906 44.7684C83.7452 47.7219 83.8044 50.4534 82.9493 52.705C82.0947 54.9555 80.378 56.5731 78.3108 57.3152C74.0285 58.8526 69.0038 56.5333 66.8782 50.5521L70.6539 49.2103C72.1882 53.5279 75.1641 54.1875 76.9568 53.5439C77.9272 53.1955 78.7665 52.4326 79.2033 51.2825C79.6396 50.1336 79.7254 48.4445 78.8586 46.2274C77.7966 43.5108 77.2288 41.0687 77.2242 38.9754C77.2195 36.8725 77.7914 34.9423 79.2091 33.5715C80.6272 32.2003 82.5645 31.7049 84.6238 31.7828C86.6734 31.8602 89.0193 32.5034 91.5706 33.6188C93.641 34.5241 95.1571 34.4311 96.1616 34.0203C97.1781 33.6047 97.922 32.7645 98.2868 31.6921C99.0039 29.5837 98.2162 26.5653 94.6274 25.1465L96.1006 21.4201C101.662 23.6186 103.491 28.8349 102.08 32.9824C101.381 35.0379 99.875 36.8309 97.6784 37.7292C95.4699 38.6324 92.8101 38.5341 89.9653 37.2903C87.6786 36.2905 85.8449 35.8388 84.4725 35.7869C83.1099 35.7354 82.3831 36.0763 81.9945 36.4521C81.6054 36.8283 81.2281 37.5558 81.2311 38.9666ZM91.087 53.265C90.1277 50.811 89.7307 48.8835 89.7276 47.4632C89.7245 46.0524 90.1019 45.3249 90.4909 44.9487C90.8796 44.5729 91.6064 44.232 92.969 44.2835C94.3414 44.3354 96.1751 44.787 98.4618 45.7868C101.307 47.0307 103.966 47.1289 106.175 46.2258C108.371 45.3275 109.878 43.5345 110.577 41.479C111.988 37.3315 110.158 32.1152 104.597 29.9167L103.124 33.643C106.713 35.0619 107.5 38.0803 106.783 40.1886C106.418 41.261 105.675 42.1012 104.658 42.5169C103.654 42.9277 102.137 43.0207 100.067 42.1154C97.5158 41 95.1698 40.3568 93.1203 40.2793C91.061 40.2015 89.1236 40.6969 87.7056 42.0681C86.2879 43.4389 85.716 45.3691 85.7206 47.472C85.7252 49.5653 86.293 52.0074 87.3551 54.724C88.2218 56.9411 88.136 58.6302 87.6998 59.7791C87.263 60.9292 86.4236 61.6921 85.4533 62.0405C83.6606 62.6841 80.6847 62.0245 79.1504 57.7069L75.3747 59.0487C77.5002 65.0299 82.525 67.3492 86.8073 65.8118C88.8744 65.0697 90.5912 63.452 91.4457 61.2016C92.3008 58.9499 92.2417 56.2185 91.087 53.265Z" fill="#808080"/>
</svg>
