<svg width="134" height="134" viewBox="0 0 134 134" fill="none" xmlns="http://www.w3.org/2000/svg">
<path fill-rule="evenodd" clip-rule="evenodd" d="M66.5164 129.026C101.039 129.026 129.026 101.039 129.026 66.5164C129.026 31.9934 101.039 4.00701 66.5164 4.00701C31.9934 4.00701 4.00701 31.9934 4.00701 66.5164C4.00701 101.039 31.9934 129.026 66.5164 129.026ZM66.5164 133.033C103.252 133.033 133.033 103.252 133.033 66.5164C133.033 29.7804 103.252 0 66.5164 0C29.7804 0 0 29.7804 0 66.5164C0 103.252 29.7804 133.033 66.5164 133.033ZM66.3018 123.876C97.8622 123.876 123.447 98.2916 123.447 66.7312C123.447 35.1709 97.8622 9.58611 66.3018 9.58611C34.7414 9.58611 9.15667 35.1709 9.15667 66.7312C9.15667 98.2916 34.7414 123.876 66.3018 123.876ZM66.3018 127.883C100.075 127.883 127.454 100.505 127.454 66.7312C127.454 32.9578 100.075 5.5791 66.3018 5.5791C32.5284 5.5791 5.14966 32.9578 5.14966 66.7312C5.14966 100.505 32.5284 127.883 66.3018 127.883ZM42.3626 54.4954H36.9703V70.5977C36.9703 71.569 36.7544 72.4325 36.3227 73.188C35.8993 73.9435 35.2974 74.5371 34.517 74.9688C33.7449 75.4005 32.8358 75.6164 31.7897 75.6164C30.7519 75.6164 29.8428 75.4005 29.0624 74.9688C28.282 74.5371 27.6759 73.9435 27.2442 73.188C26.8208 72.4325 26.609 71.569 26.609 70.5977V54.4954H21.2167V71.0584C21.2167 72.9182 21.6567 74.5454 22.5368 75.9402C23.4168 77.335 24.6497 78.4226 26.2354 79.203C27.8212 79.9751 29.6726 80.3612 31.7897 80.3612C33.8985 80.3612 35.7457 79.9751 37.3315 79.203C38.9172 78.4226 40.1501 77.335 41.0301 75.9402C41.9185 74.5454 42.3626 72.9182 42.3626 71.0584V54.4954ZM59.3522 59.4892C60.1077 60.0455 60.5353 60.8259 60.6349 61.8304H65.8031C65.7782 60.3111 65.3714 58.9745 64.5827 57.8204C63.7939 56.6664 62.6897 55.7656 61.2701 55.118C59.8587 54.4705 58.2065 54.1467 56.3136 54.1467C54.4539 54.1467 52.7934 54.4705 51.3322 55.118C49.871 55.7656 48.7211 56.6664 47.8826 57.8204C47.0524 58.9745 46.6414 60.3236 46.6497 61.8678C46.6414 63.7524 47.2599 65.251 48.5053 66.3635C49.7506 67.476 51.4484 68.2938 53.5987 68.8168L56.3759 69.5142C57.3057 69.7384 58.0903 69.9874 58.7296 70.2614C59.3771 70.5354 59.867 70.8675 60.1991 71.2577C60.5395 71.6479 60.7097 72.1294 60.7097 72.7023C60.7097 73.3167 60.5229 73.8605 60.1492 74.3337C59.7756 74.8069 59.2484 75.1764 58.5677 75.442C57.8952 75.7077 57.1023 75.8406 56.1891 75.8406C55.2592 75.8406 54.4248 75.6994 53.6859 75.4171C52.9553 75.1266 52.37 74.699 51.93 74.1344C51.4983 73.5616 51.2533 72.8476 51.1952 71.9924H45.9772C46.0188 73.8272 46.4629 75.3673 47.3098 76.6127C48.1649 77.8497 49.3521 78.7837 50.8714 79.4147C52.3991 80.0457 54.1924 80.3612 56.2513 80.3612C58.3269 80.3612 60.0994 80.0498 61.5689 79.4271C63.0467 78.7962 64.1759 77.912 64.9563 76.7746C65.745 75.6288 66.1435 74.2756 66.1518 72.7147C66.1435 71.6521 65.9484 70.7097 65.5665 69.8878C65.1929 69.0659 64.6657 68.3519 63.9849 67.7458C63.3041 67.1398 62.4988 66.6292 61.5689 66.2141C60.6391 65.7989 59.6179 65.4668 58.5054 65.2178L56.214 64.6698C55.6577 64.5453 55.1347 64.3959 54.6448 64.2215C54.155 64.0389 53.7233 63.8271 53.3497 63.5864C52.9761 63.3373 52.6813 63.0426 52.4655 62.7022C52.2579 62.3618 52.1624 61.9633 52.1791 61.5067C52.1791 60.9587 52.3368 60.4689 52.6523 60.0372C52.9761 59.6054 53.441 59.2692 54.0471 59.0284C54.6531 58.7794 55.3962 58.6548 56.2762 58.6548C57.5714 58.6548 58.5967 58.9329 59.3522 59.4892ZM69.7789 54.4954V80H87.0144V75.5541H75.1712V69.4644H86.0804V65.0185H75.1712V58.9412H86.9646V54.4954H69.7789ZM91.2517 54.4954V80H96.644V70.9588H100.58L105.411 80H111.364L105.953 70.0916C106.03 70.0579 106.107 70.0232 106.183 69.9874C107.57 69.3399 108.628 68.41 109.359 67.1979C110.09 65.9774 110.455 64.5204 110.455 62.8267C110.455 61.1414 110.094 59.676 109.371 58.4307C108.657 57.177 107.615 56.2098 106.246 55.529C104.884 54.8399 103.24 54.4954 101.314 54.4954H91.2517ZM96.644 66.625H100.305C101.335 66.625 102.19 66.4839 102.871 66.2016C103.552 65.9193 104.058 65.4959 104.39 64.9314C104.73 64.3668 104.901 63.6652 104.901 62.8267C104.901 61.9799 104.73 61.2659 104.39 60.6847C104.058 60.1036 103.547 59.6635 102.858 59.3647C102.177 59.0575 101.318 58.9039 100.28 58.9039H96.644V66.625Z" fill="black" fill-opacity="0.5"/>
</svg>
